<?xml version="1.0" encoding="utf-8"?>
<!-- Generator: Adobe Illustrator 18.1.1, SVG Export Plug-In . SVG Version: 6.00 Build 0)  -->
<!DOCTYPE svg PUBLIC "-//W3C//DTD SVG 1.1//EN" "http://www.w3.org/Graphics/SVG/1.1/DTD/svg11.dtd">
<svg version="1.1" id="Layer_1" xmlns="http://www.w3.org/2000/svg" xmlns:xlink="http://www.w3.org/1999/xlink" x="0px" y="0px"
	 viewBox="244 112 536 544" enable-background="new 244 112 536 544" xml:space="preserve">
<path enable-background="new    " d="M757.5,130.3c-6.1-2.6-13.3-1-18.2,3.6L512.3,360.4L285.4,133.9c-4.6-4.6-12.5-6.1-18.7-3.6
	c-6.1,2.6-10.8,8.4-10.8,15.1v477.2c0,6.7,4.6,12.5,10.8,15.1c2,0.8,4.6,1.3,6.7,1.3c4.4,0,8.7-1.8,11.8-4.9l227.1-226.6
	l227.1,226.6c3.1,3.1,7.4,4.9,11.5,4.9c2,0,4.6-0.5,6.7-1.3c6.1-2.6,10.5-8.4,10.5-15.1V145.4C768,138.8,763.6,132.9,757.5,130.3z
	 M291.8,582.9V185.1L491,384L291.8,582.9z M732.2,582.9L533,384l199.2-198.9V582.9z"/>
</svg>
